<svg xmlns="http://www.w3.org/2000/svg" aria-label="Test vehicle hierarchy and TQV SRAM sizing" role="img" viewBox="0 0 740 320">
<style type="text/css"><![CDATA[
  .lv-h{font:800 13px "Segoe UI",sans-serif;fill:#1A3C2E}
  .lv-s{font:11px "Segoe UI",sans-serif;fill:#475569}
  .lv-r{font:600 9.5px "Segoe UI",sans-serif;fill:#C2402E}
  .arr{stroke:#1A3C2E;stroke-width:1.8;fill:none;marker-end:url(#ah)}
  .sram-l{font:600 10px "Segoe UI",sans-serif;fill:#1A3C2E;text-anchor:middle}
]]></style>
<defs>
<marker id="ah" markerHeight="6" markerWidth="6" orient="auto" refX="9" refY="5" viewBox="0 0 10 10"><path d="M0,0 L10,5 L0,10 z" fill="#1A3C2E"></path></marker>
</defs>

<rect fill="#fff" height="104" rx="8" stroke="#1A3C2E" stroke-width="1.5" width="204" x="20" y="36"></rect>
<text class="lv-h" x="34" y="60">TESTCHIP</text>
<text class="lv-r" x="34" y="76">JEP012A · Level 1</text>
<text class="lv-s" x="34" y="96">Discrete devices &amp; structures</text>
<text class="lv-s" x="34" y="113">Mechanism-targeted stress</text>
<text class="lv-s" x="34" y="130">Output: lifetime models</text>
<path class="arr" d="M224,88 L264,88"></path>
<rect fill="#fff" height="104" rx="8" stroke="#1A3C2E" stroke-width="1.5" width="204" x="266" y="36"></rect>
<text class="lv-h" x="280" y="60">TQV (SRAM)</text>
<text class="lv-r" x="280" y="76">JEP013B · Level 2</text>
<text class="lv-s" x="280" y="96">Functional vehicle at scale</text>
<text class="lv-s" x="280" y="113">HTOL · HAST · TC · ESD · LU</text>
<text class="lv-s" x="280" y="130">Output: technology release</text>
<path class="arr" d="M470,88 L510,88"></path>
<rect fill="#fff" height="104" rx="8" stroke="#1A3C2E" stroke-width="1.5" width="204" x="512" y="36"></rect>
<text class="lv-h" x="526" y="60">Customer product</text>
<text class="lv-r" x="526" y="76">JEP013A · Product</text>
<text class="lv-s" x="526" y="96">Real customer design</text>
<text class="lv-s" x="526" y="113">Same stress matrix as TQV</text>
<text class="lv-s" x="526" y="130">Output: product release</text>

<text class="lv-h" x="20" y="178">TQV SRAM size by lithographic node (JEP013B Table)</text>
<g transform="translate(20,190)">
<rect fill="#FCEBEB" height="42" rx="4" stroke="#F09595" stroke-width="1" width="98" x="1"></rect>
<text class="sram-l" x="50" y="19">180 nm</text><text class="sram-l" x="50" y="34">2 Mb</text>
<rect fill="#FCEBEB" height="42" rx="4" stroke="#F09595" stroke-width="1" width="98" x="101"></rect>
<text class="sram-l" x="150" y="19">150 nm</text><text class="sram-l" x="150" y="34">4 Mb</text>
<rect fill="#FCEBEB" height="42" rx="4" stroke="#F09595" stroke-width="1" width="98" x="201"></rect>
<text class="sram-l" x="250" y="19">130 nm</text><text class="sram-l" x="250" y="34">8 Mb</text>
<rect fill="#FCEBEB" height="42" rx="4" stroke="#F09595" stroke-width="1" width="98" x="301"></rect>
<text class="sram-l" x="350" y="19">90 nm</text><text class="sram-l" x="350" y="34">16 Mb</text>
<rect fill="#FCEBEB" height="42" rx="4" stroke="#F09595" stroke-width="1" width="98" x="401"></rect>
<text class="sram-l" x="450" y="19">65 nm</text><text class="sram-l" x="450" y="34">32 Mb</text>
<rect fill="#FCEBEB" height="42" rx="4" stroke="#F09595" stroke-width="1" width="98" x="501"></rect>
<text class="sram-l" x="550" y="19">45 / 40 nm</text><text class="sram-l" x="550" y="34">64 Mb</text>
<rect fill="#1A3C2E" height="42" rx="4" width="98" x="601"></rect>
<text font-family="Segoe UI" font-size="10" font-weight="600" fill="#ffffff" text-anchor="middle" x="650" y="19">32 / 28 nm</text>
<text font-family="Segoe UI" font-size="10" font-weight="600" fill="#ffffff" text-anchor="middle" x="650" y="34">128 Mb</text>
</g>
<text class="lv-s" x="20" y="266">Continuing: 22 / 20 nm = 256 Mb · 15 nm = 512 Mb</text>
<text class="lv-s" font-style="italic" x="20" y="286">Sample size: 231 DUTs from 3 lots, no more than 90 from any one lot (JEP013A §8.3)</text>
<text class="lv-s" font-style="italic" x="20" y="303">A 50% reduction in SRAM size requires 2× sample-size increase to maintain coverage</text>
</svg>