<?xml version="1.0" encoding="UTF-8"?>
<svg aria-label="PCN workflow and change classification" role="img" viewBox="0 0 740 460" xmlns="http://www.w3.org/2000/svg">
<style type="text/css"><![CDATA[
  .lbl{font:700 13px "Segoe UI",sans-serif;fill:#1A3C2E}
  .st{fill:#fff;stroke:#1A3C2E;stroke-width:1.2}
  .st-h{font:700 12px "Segoe UI",sans-serif;fill:#1A3C2E}
  .st-s{font:11px "Segoe UI",sans-serif;fill:#475569}
  .gate{fill:#1A3C2E;stroke:#0d2419;stroke-width:1.2}
  .gate-h{font:700 12px "Segoe UI",sans-serif;fill:#fff}
  .gate-s{font:11px "Segoe UI",sans-serif;fill:rgba(255,255,255,.75)}
  .arr{stroke:#1A3C2E;stroke-width:1.6;fill:none;marker-end:url(#ah)}
  .clsbox{fill:#F8FAFC;stroke:#cbd5e1;stroke-width:1}
  .cls-s{font:11px "Segoe UI",sans-serif;fill:#475569}
]]></style>
<defs>
<marker id="ah" markerHeight="7" markerWidth="7" orient="auto" refX="9" refY="5" viewBox="0 0 10 10"><path d="M0,0 L10,5 L0,10 z" fill="#1A3C2E"></path></marker>
</defs>

<text class="lbl" x="20" y="26">PCN workflow</text>

<!-- Row 1: steps 1-3 -->
<g transform="translate(20,42)">
<rect class="st" height="56" rx="7" width="180"></rect>
<text class="st-h" x="16" y="24">1. Identify change</text>
<text class="st-s" x="16" y="42">recipe / tool / material / mask</text>
</g>
<path class="arr" d="M200,70 L233,70"></path>
<g transform="translate(234,42)">
<rect class="st" height="56" rx="7" width="170"></rect>
<text class="st-h" x="16" y="24">2. Classify</text>
<text class="st-s" x="16" y="42">Major / Minor / Admin</text>
</g>
<path class="arr" d="M404,70 L437,70"></path>
<g transform="translate(438,42)">
<rect class="st" height="56" rx="7" width="182"></rect>
<text class="st-h" x="16" y="24">3. Assess impact</text>
<text class="st-s" x="16" y="42">FMEA update / qual plan</text>
</g>

<!-- Down connector: step 3 -> step 4 (L-bend, right-top to left-bottom) -->
<path class="arr" d="M529,98 L529,115 L110,115 L110,130"></path>

<!-- Row 2: steps 4-6 -->
<g transform="translate(20,132)">
<rect class="st" height="56" rx="7" width="180"></rect>
<text class="st-h" x="16" y="24">4. Notify customer</text>
<text class="st-s" x="16" y="42">90-day advance, major</text>
</g>
<path class="arr" d="M200,160 L233,160"></path>
<g transform="translate(234,132)">
<rect class="gate" height="56" rx="7" width="170"></rect>
<text class="gate-h" x="16" y="24">5. Acceptance gate</text>
<text class="gate-s" x="16" y="42">PPAP / 8D, re-qual lot</text>
</g>
<path class="arr" d="M404,160 L437,160"></path>
<g transform="translate(438,132)">
<rect class="st" height="56" rx="7" width="182"></rect>
<text class="st-h" x="16" y="24">6. Implement</text>
<text class="st-s" x="16" y="42">date-code switch / tagging</text>
</g>

<!-- Classification table -->
<text class="lbl" x="20" y="248">Classification &amp; required actions</text>

<g transform="translate(20,260)">
<rect class="clsbox" height="52" rx="6" width="700"></rect>
<rect fill="#A32D2D" height="52" rx="2" width="5"></rect>
<text font="700 12px 'Segoe UI'" font-family="Segoe UI" font-size="12" font-weight="700" fill="#A32D2D" x="20" y="22">Major</text>
<text class="cls-s" x="150" y="20">Affects form / fit / function / reliability — 90-day notice, full re-qual, customer signoff</text>
<text class="cls-s" x="150" y="38">New fab site, node revision, package material, mask shop change</text>
</g>

<g transform="translate(20,320)">
<rect class="clsbox" height="52" rx="6" width="700"></rect>
<rect fill="#854F0B" height="52" rx="2" width="5"></rect>
<text font-family="Segoe UI" font-size="12" font-weight="700" fill="#854F0B" x="20" y="22">Minor</text>
<text class="cls-s" x="150" y="20">Inside qualified envelope — informational notice (~30-day), partial re-qual</text>
<text class="cls-s" x="150" y="38">Same-model tool swap, parameter within limits, consumable supplier change</text>
</g>

<g transform="translate(20,380)">
<rect class="clsbox" height="52" rx="6" width="700"></rect>
<rect fill="#5F5E5A" height="52" rx="2" width="5"></rect>
<text font-family="Segoe UI" font-size="12" font-weight="700" fill="#5F5E5A" x="20" y="22">Administrative</text>
<text class="cls-s" x="150" y="20">No technical impact — courtesy notice only, no re-qual</text>
<text class="cls-s" x="150" y="38">Document renumbering, ownership transfer, equivalent-supplier name change</text>
</g>
</svg>