<?xml version="1.0" encoding="UTF-8"?>
<svg aria-label="SPICE model role in the PDK" role="img" viewBox="0 0 740 380" xmlns="http://www.w3.org/2000/svg">
<style type="text/css"><![CDATA[
  .box-h{font:700 12px "Segoe UI",sans-serif;fill:#1A3C2E}
  .box-s{font:10.5px "Segoe UI",sans-serif;fill:#475569}
  .box-r{font:600 9.5px "Segoe UI",sans-serif;fill:#C2402E}
  .arr{stroke:#1A3C2E;stroke-width:1.8;fill:none;marker-end:url(#ah)}
  .arr-r{stroke:#C2402E;stroke-width:1.8;fill:none;stroke-dasharray:5 3;marker-end:url(#ah_r)}
  .center-t{font:800 14px "Segoe UI",sans-serif;fill:#fff;text-anchor:middle}
  .center-s{font:600 11px "Segoe UI",sans-serif;fill:rgba(255,255,255,.78);text-anchor:middle}
  .elbl{font:italic 10px "Segoe UI",sans-serif;fill:#64748b}
]]></style>
<defs>
<marker id="ah" markerHeight="7" markerWidth="7" orient="auto" refX="9" refY="5" viewBox="0 0 10 10"><path d="M0,0 L10,5 L0,10 z" fill="#1A3C2E"></path></marker>
<marker id="ah_r" markerHeight="7" markerWidth="7" orient="auto" refX="9" refY="5" viewBox="0 0 10 10"><path d="M0,0 L10,5 L0,10 z" fill="#C2402E"></path></marker>
</defs>

<!-- Center: SPICE model -->
<rect fill="#1A3C2E" height="84" rx="9" width="184" x="278" y="148"></rect>
<text class="center-t" x="370" y="184">BSIM4 model</text>
<text class="center-s" x="370" y="204">~300 parameters / device</text>

<!-- Top-left: silicon measurements input -->
<rect fill="#fff" height="92" rx="7" stroke="#1A3C2E" stroke-width="1.4" width="208" x="40" y="36"></rect>
<text class="box-h" x="54" y="56">Silicon measurements</text>
<text class="box-r" x="54" y="70">from PCM + TEG</text>
<text class="box-s" x="54" y="88">DC: Vth, Idsat, Ioff, gm</text>
<text class="box-s" x="54" y="104">AC: Cgg, Cgd, ft</text>
<text class="box-s" x="54" y="120">Reliability: ΔVth (HCI / BTI)</text>
<path class="arr" d="M248,98 L276,156"></path>
<text class="elbl" x="260" y="120">extract</text>

<!-- Bottom-left: process corners -->
<rect fill="#fff" height="92" rx="7" stroke="#1A3C2E" stroke-width="1.4" width="208" x="40" y="166"></rect>
<text class="box-h" x="54" y="186">Process corners</text>
<text class="box-r" x="54" y="200">6-corner standard</text>
<text class="box-s" x="54" y="218">SS / TT / FF (global)</text>
<text class="box-s" x="54" y="234">SF / FS (mismatch)</text>
<text class="box-s" x="54" y="250">at −40, 27, 125 °C</text>
<path class="arr" d="M248,200 L276,196"></path>

<!-- Top-right: designer toolchain -->
<rect fill="#fff" height="92" rx="7" stroke="#1A3C2E" stroke-width="1.4" width="208" x="492" y="36"></rect>
<text class="box-h" x="506" y="56">Designer simulation</text>
<text class="box-r" x="506" y="70">circuit verification</text>
<text class="box-s" x="506" y="88">HSPICE / Spectre / Eldo</text>
<text class="box-s" x="506" y="104">DC / AC / transient</text>
<text class="box-s" x="506" y="120">Monte-Carlo, corner</text>
<path class="arr" d="M464,156 L492,98"></path>
<text class="elbl" x="476" y="138">consume</text>

<!-- Bottom-right: PDK -->
<rect fill="#fff" height="92" rx="7" stroke="#1A3C2E" stroke-width="1.4" width="208" x="492" y="166"></rect>
<text class="box-h" x="506" y="186">PDK package</text>
<text class="box-r" x="506" y="200">v0.5 → v0.9 → v1.0</text>
<text class="box-s" x="506" y="218">.model files (.lib)</text>
<text class="box-s" x="506" y="234">+ DRC + LVS + PEX decks</text>
<text class="box-s" x="506" y="250">+ symbols, layouts</text>
<path class="arr" d="M464,200 L492,196"></path>
<text class="elbl" x="466" y="186">pack</text>

<!-- Bottom: Customer feedback (return loop) -->
<rect fill="#FCEBEB" height="58" rx="7" stroke="#F09595" stroke-width="1" width="668" x="40" y="296"></rect>
<text class="box-h" fill="#9F2D20" x="54" y="316">Customer silicon feedback (DTCO loop)</text>
<text class="box-s" x="54" y="333">Measured silicon → model-error analysis → recalibration → next PDK revision</text>
<text class="box-s" x="54" y="348">Cycle time: typically 6–12 weeks per iteration during PDK development</text>
<path class="arr-r" d="M370,232 L370,294"></path>
</svg>