<?xml version="1.0" encoding="UTF-8"?>
<svg aria-label="MfD response matrix: DFM design intent mapped to fab MfD response through the tape-out gate" role="img" viewBox="0 0 740 340" xmlns="http://www.w3.org/2000/svg">
<style type="text/css"><![CDATA[
  .side-h{font:800 13px "Segoe UI",sans-serif;fill:#1A3C2E}
  .side-s{font:10.5px "Segoe UI",sans-serif;fill:#475569}
  .item{font:10px "Segoe UI",sans-serif;fill:#1A3C2E}
  .arr{stroke:#C2402E;stroke-width:1.3;fill:none;marker-end:url(#ah)}
  .gate-t{font:800 13px "Segoe UI",sans-serif;fill:#fff;text-anchor:middle}
]]></style>
<defs>
<marker id="ah" markerHeight="6" markerWidth="6" orient="auto" refX="9" refY="5" viewBox="0 0 10 10"><path d="M0,0 L10,5 L0,10 z" fill="#C2402E"></path></marker>
</defs>

<rect fill="#FAEEDA" height="296" rx="8" stroke="#EF9F27" stroke-width="1.4" width="270" x="20" y="20"></rect>
<text class="side-h" x="34" y="44">Design intent (DFM)</text>
<text class="side-s" x="34" y="62">What the designer asks of manufacturing</text>
<text class="item" x="34" y="92">Tight CD control on critical paths</text>
<text class="item" x="34" y="114">Predictable iso / dense bias</text>
<text class="item" x="34" y="136">Low layer-to-layer overlay</text>
<text class="item" x="34" y="158">Flat BEOL topography for routing</text>
<text class="item" x="34" y="180">Low random defect density</text>
<text class="item" x="34" y="202">Stable Vth at corners</text>
<text class="item" x="34" y="224">Reproducible interconnect resistance</text>
<text class="item" x="34" y="246">Mismatch at Pelgrom limit</text>
<text class="item" x="34" y="268">Reliable contacts and vias</text>
<text class="item" x="34" y="290">Predictable parasitic capacitance</text>

<rect fill="#fff" height="296" rx="8" stroke="#1A3C2E" stroke-width="1.4" width="270" x="450" y="20"></rect>
<text class="side-h" x="464" y="44">Fab response (MfD)</text>
<text class="side-s" x="464" y="62">What the fab does to deliver</text>
<text class="item" x="464" y="92">EUV / multi-patterning litho</text>
<text class="item" x="464" y="114">SRAF + OPC at mask shop</text>
<text class="item" x="464" y="136">High-NA scanners + overlay control</text>
<text class="item" x="464" y="158">CMP optimization + dummy fill</text>
<text class="item" x="464" y="180">Cleanroom class + tool FDC</text>
<text class="item" x="464" y="202">Anneal + implant control via APC</text>
<text class="item" x="464" y="224">Cu seed + ECP + CMP tuning</text>
<text class="item" x="464" y="246">Anneal uniformity, well-implant</text>
<text class="item" x="464" y="268">Contact + barrier engineering</text>
<text class="item" x="464" y="290">Dielectric thickness + k control</text>

<path class="arr" d="M290,88 L333,88"></path>
<path class="arr" d="M290,110 L333,110"></path>
<path class="arr" d="M290,132 L333,132"></path>
<path class="arr" d="M290,154 L333,154"></path>
<path class="arr" d="M290,176 L333,176"></path>
<path class="arr" d="M290,198 L333,198"></path>
<path class="arr" d="M290,220 L333,220"></path>
<path class="arr" d="M290,242 L333,242"></path>
<path class="arr" d="M290,264 L333,264"></path>
<path class="arr" d="M290,286 L333,286"></path>

<rect fill="#1A3C2E" height="220" rx="6" width="80" x="335" y="76"></rect>
<text class="gate-t" x="375" y="182">TAPE</text>
<text class="gate-t" x="375" y="200">OUT</text>

<path class="arr" d="M415,88 L450,88"></path>
<path class="arr" d="M415,110 L450,110"></path>
<path class="arr" d="M415,132 L450,132"></path>
<path class="arr" d="M415,154 L450,154"></path>
<path class="arr" d="M415,176 L450,176"></path>
<path class="arr" d="M415,198 L450,198"></path>
<path class="arr" d="M415,220 L450,220"></path>
<path class="arr" d="M415,242 L450,242"></path>
<path class="arr" d="M415,264 L450,264"></path>
<path class="arr" d="M415,286 L450,286"></path>
</svg>