<?xml version="1.0" encoding="UTF-8"?>
<svg aria-label="SPC control chart" role="img" viewBox="0 0 740 320" xmlns="http://www.w3.org/2000/svg">
  <style>
    .ax {
      stroke: #94A3B8;
      stroke-width: 1;
      fill: none;
    }

    .ucl {
      stroke: #e63946;
      stroke-width: 1.5;
      fill: none;
    }

    .lcl {
      stroke: #e63946;
      stroke-width: 1.5;
      fill: none;
    }

    .cl {
      stroke: #1A3C2E;
      stroke-width: 1.5;
      fill: none;
    }

    .data {
      stroke: #1A3C2E;
      stroke-width: 1.2;
      fill: none;
    }

    .pt {
      fill: #1A3C2E;
      stroke: none;
    }

    .pt-bad {
      fill: #e63946;
      stroke: none;
    }

    .lbl {
      font: 800 12px "Segoe UI", sans-serif;
      fill: #1A3C2E;
    }

    .axl {
      font: 700 10px "Segoe UI", sans-serif;
      fill: #475569;
    }

    .annot {
      font: 700 10px "Segoe UI", sans-serif;
      fill: #e63946;
    }

    .rules-h {
      font: 800 9.5px "Segoe UI", sans-serif;
      fill: #475569;
    }

    .rules-t {
      font: 700 9.5px "Segoe UI", sans-serif;
      fill: #475569;
    }
  </style>

  <text class="lbl" x="20" y="22">Xbar control chart with Western Electric rules</text>

  <!-- Chart frame -->
  <line class="ax" x1="60" y1="50" x2="60" y2="240"/>
  <line class="ax" x1="60" y1="240" x2="700" y2="240"/>

  <!-- UCL, CL, LCL -->
  <line class="ucl" x1="60" y1="80" x2="700" y2="80"/>
  <text class="axl" text-anchor="end" x="40" y="84">UCL</text>
  <text class="axl" text-anchor="end" x="700" y="74" fill="#e63946">+3σ</text>

  <line class="cl" x1="60" y1="150" x2="700" y2="150"/>
  <text class="axl" text-anchor="end" x="40" y="154">CL</text>
  <text class="axl" text-anchor="end" x="700" y="144" fill="#1A3C2E">target</text>

  <line class="lcl" x1="60" y1="220" x2="700" y2="220"/>
  <text class="axl" text-anchor="end" x="40" y="224">LCL</text>
  <text class="axl" text-anchor="end" x="700" y="214" fill="#e63946">−3σ</text>

  <!-- 1σ / 2σ guides -->
  <line class="ax" x1="60" y1="103" x2="700" y2="103" stroke-dasharray="2 3"/>
  <line class="ax" x1="60" y1="126" x2="700" y2="126" stroke-dasharray="2 3"/>
  <line class="ax" x1="60" y1="173" x2="700" y2="173" stroke-dasharray="2 3"/>
  <line class="ax" x1="60" y1="196" x2="700" y2="196" stroke-dasharray="2 3"/>

  <!-- Data sequence -->
  <path class="data" d="M80,160 L110,140 L140,158 L170,148 L200,168 L230,152 L260,162 L290,141 L320,170 L350,155 L380,143 L410,148 L440,114 L470,108 L500,72 L530,90 L560,128 L590,110 L620,100 L650,118 L680,125"/>

  <circle class="pt" cx="80" cy="160" r="3"/>
  <circle class="pt" cx="110" cy="140" r="3"/>
  <circle class="pt" cx="140" cy="158" r="3"/>
  <circle class="pt" cx="170" cy="148" r="3"/>
  <circle class="pt" cx="200" cy="168" r="3"/>
  <circle class="pt" cx="230" cy="152" r="3"/>
  <circle class="pt" cx="260" cy="162" r="3"/>
  <circle class="pt" cx="290" cy="141" r="3"/>
  <circle class="pt" cx="320" cy="170" r="3"/>
  <circle class="pt" cx="350" cy="155" r="3"/>
  <circle class="pt" cx="380" cy="143" r="3"/>
  <circle class="pt" cx="410" cy="148" r="3"/>
  <circle class="pt" cx="440" cy="114" r="3"/>
  <circle class="pt" cx="470" cy="108" r="3"/>
  <circle class="pt-bad" cx="500" cy="72" r="4"/>
  <circle class="pt" cx="530" cy="90" r="3"/>
  <circle class="pt" cx="560" cy="128" r="3"/>
  <circle class="pt" cx="590" cy="110" r="3"/>
  <circle class="pt" cx="620" cy="100" r="3"/>
  <circle class="pt" cx="650" cy="118" r="3"/>
  <circle class="pt" cx="680" cy="125" r="3"/>

  <text class="annot" text-anchor="middle" x="420" y="60">Rule 1: 1 point beyond ±3σ</text>
  <text class="annot" text-anchor="middle" x="580" y="60">Rule 2: 8 in row on one side of CL</text>

  <text class="axl" text-anchor="middle" x="380" y="270">Sample sequence (wafer number)</text>

  <!-- Rules box -->
  <rect x="20" y="285" width="700" height="28" rx="4" ry="4" fill="#F8FAFC" stroke="#E2E8F0"/>
  <text class="rules-h" x="30" y="303">Western Electric rules:</text>
  <text class="rules-t" x="160" y="303">1 beyond 3σ · 2 of 3 beyond 2σ same side · 4 of 5 beyond 1σ same side · 8 in row same side of CL</text>
</svg>