<?xml version="1.0" encoding="UTF-8"?>
<svg aria-label="MPW reticle composition and workflow" role="img" viewBox="0 0 740 360" xmlns="http://www.w3.org/2000/svg">
<style>
        .lbl{font:700 12px "Segoe UI",sans-serif;fill:#1A3C2E}
        .sub{font:10.5px "Segoe UI",sans-serif;fill:#475569}
        .ret{fill:#fff;stroke:#1A3C2E;stroke-width:2}
        .seat{fill:#fff;stroke:#475569;stroke-width:0.8}
        .seat-a{fill:#fff5f5;stroke:#e63946;stroke-width:1}
        .seat-l{font:600 10px "Segoe UI",sans-serif;fill:#1A3C2E;text-anchor:middle}
        .seat-s{font:9px "Segoe UI",sans-serif;fill:#475569;text-anchor:middle}
        .flow{fill:#1A3C2E;stroke:#1A3C2E;rx:5}
        .flow-t{font:700 11px "Segoe UI",sans-serif;fill:#fff;text-anchor:middle}
        .arr4{stroke:#1A3C2E;stroke-width:1.5;fill:none;marker-end:url(#ah_m)}
      </style>
<defs>
<marker id="ah_m" markerheight="5" markerwidth="5" orient="auto" refx="8" refy="5" viewBox="0 0 10 10"><path d="M0,0 L10,5 L0,10 z" fill="#1A3C2E"></path></marker>
</defs>
<!-- Reticle composition -->
<text class="lbl" x="20" y="22">A · MPW reticle composition</text>
<rect class="ret" height="200" width="280" x="40" y="40"></rect>
<!-- Seats with different customer designs -->
<rect class="seat" height="60" width="80" x="50" y="50"></rect>
<text class="seat-l" x="90" y="78">Cust. A</text>
<text class="seat-s" x="90" y="93">RISC-V core</text>
<text class="seat-s" x="90" y="106">3 × 4 mm</text>
<rect class="seat" height="60" width="80" x="140" y="50"></rect>
<text class="seat-l" x="180" y="78">Cust. B</text>
<text class="seat-s" x="180" y="93">RF front-end</text>
<text class="seat-s" x="180" y="106">2 × 3 mm</text>
<rect class="seat" height="60" width="80" x="230" y="50"></rect>
<text class="seat-l" x="270" y="78">Cust. C</text>
<text class="seat-s" x="270" y="93">ASIC accel</text>
<text class="seat-s" x="270" y="106">2 × 2 mm</text>
<rect class="seat" height="60" width="120" x="50" y="120"></rect>
<text class="seat-l" x="110" y="148">Cust. D · University thesis</text>
<text class="seat-s" x="110" y="163">Imaging chip</text>
<text class="seat-s" x="110" y="175">4 × 5 mm</text>
<rect class="seat" height="60" width="130" x="180" y="120"></rect>
<text class="seat-l" x="245" y="148">Cust. E · Start-up prototype</text>
<text class="seat-s" x="245" y="163">Power management IC</text>
<text class="seat-s" x="245" y="175">3 × 4 mm</text>
<rect class="seat-a" height="40" width="260" x="50" y="190"></rect>
<text class="seat-l" fill="#e63946" x="180" y="208">PCM + TEG (foundry-owned scribe-line and drop-in)</text>
<text class="seat-s" x="180" y="222">Always present · funded by all customers via MPW fee</text>
<!-- Right side: customers and workflow -->
<text class="lbl" x="350" y="22">B · MPW service flow</text>
<g transform="translate(350,40)">
<rect class="flow" height="40" width="180"></rect>
<text class="flow-t" x="90" y="18">Customers submit GDSII</text>
<text class="flow-t" x="90" y="33">to foundry MPW window</text>
</g>
<path class="arr4" d="M440,82 L440,98"></path>
<g transform="translate(350,100)">
<rect class="flow" height="40" width="180"></rect>
<text class="flow-t" x="90" y="18">Foundry composes reticle</text>
<text class="flow-t" x="90" y="33">+ runs OPC + makes masks</text>
</g>
<path class="arr4" d="M440,142 L440,158"></path>
<g transform="translate(350,160)">
<rect class="flow" height="40" width="180"></rect>
<text class="flow-t" x="90" y="18">Pilot wafers run (4–12 wf)</text>
<text class="flow-t" x="90" y="33">through full process flow</text>
</g>
<path class="arr4" d="M440,202 L440,218"></path>
<g transform="translate(350,220)">
<rect class="flow" height="40" width="180"></rect>
<text class="flow-t" x="90" y="18">Probe + dice + distribute</text>
<text class="flow-t" x="90" y="33">each customer their own die</text>
</g>
<!-- Right side: shuttle examples -->
<text class="lbl" x="555" y="22">C · Major MPW services</text>
<g transform="translate(555,40)">
<text class="sub" x="0" y="14">• TSMC University Shuttle</text>
<text class="sub" x="0" y="32">• Samsung eShuttle</text>
<text class="sub" x="0" y="50">• GlobalFoundries</text>
<text class="sub" x="0" y="68">• Europractice IC Service</text>
<text class="sub" x="0" y="86">• MOSIS (USA)</text>
<text class="sub" x="0" y="104">• CMP (France · Europe)</text>
<text class="sub" x="0" y="122">• Muse Semiconductor</text>
</g>
<!-- Bottom: timing -->
<text class="lbl" x="20" y="285">D · Typical cost &amp; timing trade-offs vs. dedicated mask</text>
<text class="sub" x="20" y="302">MPW NRE = 5–15 % of full mask cost · Lead time = 3–6 months · Die count = 25–100 typical · Yield = identical to production</text>
<text class="sub" font-style="italic" x="20" y="320">Customer waits for a foundry-scheduled shuttle window — limited to a few dates per year per node</text>
</svg>
