<?xml version="1.0" encoding="UTF-8"?>
<svg aria-label="SPICE model role in the PDK" role="img" viewBox="0 0 740 360" xmlns="http://www.w3.org/2000/svg">
<style>
        .box{fill:#fff;stroke:#1A3C2E;stroke-width:1.5;rx:7}
        .box-h{font:700 12px "Segoe UI",sans-serif;fill:#1A3C2E}
        .box-s{font:10.5px "Segoe UI",sans-serif;fill:#475569}
        .box-r{font:600 9.5px "Segoe UI",sans-serif;fill:#e63946}
        .arr2{stroke:#1A3C2E;stroke-width:2;fill:none;marker-end:url(#ah_s)}
        .center{fill:#1A3C2E;stroke:#1A3C2E;stroke-width:1.5;rx:8}
        .center-t{font:800 14px "Segoe UI",sans-serif;fill:#fff;text-anchor:middle}
        .center-s{font:600 11px "Segoe UI",sans-serif;fill:rgba(255,255,255,.7);text-anchor:middle}
        .corner{fill:#fff5f5;stroke:#fecdd3;stroke-width:1;rx:5}
        .corner-l{font:700 10px "Segoe UI",sans-serif;fill:#e63946;text-anchor:middle}
      </style>
<defs>
<marker id="ah_s" markerheight="5" markerwidth="5" orient="auto" refx="8" refy="5" viewBox="0 0 10 10"><path d="M0,0 L10,5 L0,10 z" fill="#1A3C2E"></path></marker>
</defs>
<!-- Center: SPICE model -->
<rect class="center" height="80" width="180" x="280" y="140"></rect>
<text class="center-t" x="370" y="175">BSIM4 model</text>
<text class="center-s" x="370" y="195">~300 parameters / device</text>
<!-- Top: silicon measurements input -->
<rect class="box" height="80" width="200" x="40" y="40"></rect>
<text class="box-h" x="50" y="60">Silicon measurements</text>
<text class="box-r" x="50" y="74">from PCM + TEG</text>
<text class="box-s" x="50" y="90">DC: Vth, Idsat, Ioff, gm</text>
<text class="box-s" x="50" y="104">AC: Cgg, Cgd, ft</text>
<text class="box-s" x="50" y="118">Reliability: ΔVth(HCI/BTI)</text>
<path class="arr2" d="M240,90 L278,150"></path>
<text class="box-s" font-style="italic" x="245" y="105">extract</text>
<!-- Left: process corners -->
<rect class="box" height="80" width="200" x="40" y="160"></rect>
<text class="box-h" x="50" y="180">Process corners</text>
<text class="box-r" x="50" y="194">6-corner standard</text>
<text class="box-s" x="50" y="210">SS / TT / FF (global)</text>
<text class="box-s" x="50" y="225">SF / FS (mismatch)</text>
<text class="box-s" x="50" y="240">at −40, 27, 125 °C</text>
<path class="arr2" d="M240,200 L278,200"></path>
<!-- Right: designer toolchain -->
<rect class="box" height="80" width="200" x="500" y="40"></rect>
<text class="box-h" x="510" y="60">Designer simulation</text>
<text class="box-r" x="510" y="74">circuit verification</text>
<text class="box-s" x="510" y="90">HSPICE / Spectre / Eldo</text>
<text class="box-s" x="510" y="104">DC / AC / transient</text>
<text class="box-s" x="510" y="118">Monte-Carlo, corner</text>
<path class="arr2" d="M462,150 L500,90"></path>
<text class="box-s" font-style="italic" x="465" y="125">consume</text>
<!-- Bottom-right: PDK -->
<rect class="box" height="80" width="200" x="500" y="160"></rect>
<text class="box-h" x="510" y="180">PDK package</text>
<text class="box-r" x="510" y="194">v0.5 → v0.9 → v1.0</text>
<text class="box-s" x="510" y="210">.model files (.lib)</text>
<text class="box-s" x="510" y="225">+ DRC + LVS + PEX decks</text>
<text class="box-s" x="510" y="240">+ symbols, layouts</text>
<path class="arr2" d="M462,200 L500,200"></path>
<text class="box-s" font-style="italic" x="475" y="195">in</text>
<!-- Bottom: Customer feedback (return) -->
<rect class="box" height="60" width="660" x="40" y="280"></rect>
<text class="box-h" x="50" y="298">Customer silicon feedback (DTCO loop)</text>
<text class="box-s" x="50" y="316">Customer measured silicon → model error analysis → recalibration → next PDK revision</text>
<text class="box-s" x="50" y="330">Cycle time: typically 6–12 weeks per iteration during PDK development</text>
<path class="arr2" d="M370,225 L370,278" stroke="#e63946" stroke-dasharray="4 3"></path>
</svg>
