<svg xmlns="http://www.w3.org/2000/svg" aria-label="Process Qualification two-level framework" role="img" viewBox="0 0 780 360">
<style type="text/css"><![CDATA[
  .ph-h{font:800 13px "Segoe UI",sans-serif;fill:#1A3C2E}
  .ph-s{font:600 11px "Segoe UI",sans-serif;fill:#475569}
  .test{font:11px "Segoe UI",sans-serif;fill:#334155}
  .test-h{font:700 11px "Segoe UI",sans-serif;fill:#9F2D20}
  .test-h2{font:700 11px "Segoe UI",sans-serif;fill:#1E40AF}
  .arr{stroke:#1A3C2E;stroke-width:2;fill:none;marker-end:url(#ah)}
]]></style>
<defs>
<marker id="ah" markerHeight="6" markerWidth="6" orient="auto" refX="9" refY="5" viewBox="0 0 10 10"><path d="M0,0 L10,5 L0,10 z" fill="#1A3C2E"></path></marker>
</defs>

<rect fill="#1A3C2E" height="30" rx="6" width="760" x="10" y="10"></rect>
<text fill="#fff" font-family="Segoe UI" font-size="13" font-weight="700" text-anchor="middle" x="390" y="30">Process Qualification — JEP012A two-level framework</text>

<!-- LEVEL 1 -->
<rect fill="#FEF2F2" height="296" rx="8" stroke="#F0A8A8" stroke-width="1.2" width="360" x="10" y="58"></rect>
<text class="ph-h" x="24" y="82">Level 1 · TESTCHIP</text>
<text class="ph-s" x="24" y="99">Pure technology wear-out qualification</text>
<rect fill="#fff" height="48" rx="5" stroke="#F0A8A8" stroke-width="1" width="332" x="24" y="112"></rect>
<text class="test-h" x="36" y="130">HCI — Hot Carrier Injection</text>
<text class="test" x="36" y="147">DC stress on n-channel · §8.1 · acc. n = 2–4 [3]</text>
<rect fill="#fff" height="48" rx="5" stroke="#F0A8A8" stroke-width="1" width="332" x="24" y="168"></rect>
<text class="test-h" x="36" y="186">GOI / TDDB — Gate Oxide Integrity</text>
<text class="test" x="36" y="203">V-ramp, QBD, time-dep. breakdown · §9 · Ea≈0.7 eV [3]</text>
<rect fill="#fff" height="48" rx="5" stroke="#F0A8A8" stroke-width="1" width="332" x="24" y="224"></rect>
<text class="test-h" x="36" y="242">BTI — Bias-Temperature Instability</text>
<text class="test" x="36" y="259">NBTI / PBTI · §10.4 · Ea≈0.55 eV [3]</text>
<rect fill="#fff" height="48" rx="5" stroke="#F0A8A8" stroke-width="1" width="332" x="24" y="280"></rect>
<text class="test-h" x="36" y="298">P²ID — Plasma-Process-Induced Damage</text>
<text class="test" x="36" y="315">Antenna-ratio rules · §9.3</text>

<!-- LEVEL 2 -->
<rect fill="#EFF6FF" height="296" rx="8" stroke="#A8C8F0" stroke-width="1.2" width="360" x="410" y="58"></rect>
<text class="ph-h" x="424" y="82">Level 2 · TQV</text>
<text class="ph-s" x="424" y="99">Functional vehicle reliability — JEP013B</text>
<rect fill="#fff" height="100" rx="5" stroke="#A8C8F0" stroke-width="1" width="332" x="424" y="112"></rect>
<text class="test-h2" x="436" y="130">Technology Qualification Vehicle</text>
<text class="test" x="436" y="147">Typically an SRAM of representative density:</text>
<text class="test" x="436" y="164">65 nm → 32 Mb · 45/40 nm → 64 Mb</text>
<text class="test" x="436" y="181">32/28 nm → 128 Mb · 22/20 nm → 256 Mb [2]</text>
<text class="test" x="436" y="198">ASIC also acceptable if equivalent density</text>
<rect fill="#fff" height="106" rx="5" stroke="#A8C8F0" stroke-width="1" width="332" x="424" y="220"></rect>
<text class="test-h2" x="436" y="238">Stress tests</text>
<text class="test" x="436" y="255">HTOL · 125 °C / 1000 hr / VCCMAX</text>
<text class="test" x="436" y="272">HAST · 130 °C / 85% RH / 96 hr</text>
<text class="test" x="436" y="289">TC · −65 °C to +150 °C / 1000 cycles</text>
<text class="test" x="436" y="306">ESD · HBM / CDM / MM per JESD22-A114 / -C101</text>
<text class="test" x="436" y="323">Latch-up · per JESD78</text>

<!-- Arrow L1 -> L2 -->
<path class="arr" d="M372,206 L408,206"></path>
<text fill="#1A3C2E" font-family="Segoe UI" font-size="9" font-style="italic" text-anchor="middle" x="390" y="200">L1 OK</text>

</svg>